<svg xmlns="http://www.w3.org/2000/svg" width="171.303" height="63.333" viewBox="0 0 171.303 63.333"><g transform="translate(-109 -351.333)"><path d="M30.966,27.307H7.659V7.33H30.966M34.3,4H4.33A3.318,3.318,0,0,0,1,7.33V27.307a3.33,3.33,0,0,0,3.33,3.33H34.3a3.33,3.33,0,0,0,3.33-3.33V7.33A3.329,3.329,0,0,0,34.3,4Z" transform="translate(284.303 377.042) rotate(90)" fill="#9c9c9c"/><path d="M11.167,9.583H55.833V37.5H11.167m44.667,5.583A5.583,5.583,0,0,0,61.417,37.5V9.583A5.582,5.582,0,0,0,55.833,4H11.167A5.564,5.564,0,0,0,5.583,9.583V37.5a5.583,5.583,0,0,0,5.583,5.583H0v5.583H67V43.083Z" transform="translate(182.667 366)" fill="#9c9c9c"/><path d="M64.333,40h-57V8.333h57m0-6.333h-57A6.311,6.311,0,0,0,1,8.333v38a6.333,6.333,0,0,0,6.333,6.333H29.5l-6.333,9.5v3.167H48.5V62.167l-6.333-9.5H64.333a6.333,6.333,0,0,0,6.333-6.333v-38A6.332,6.332,0,0,0,64.333,2Z" transform="translate(108 349.333)" fill="#9c9c9c"/></g></svg>