<svg xmlns="http://www.w3.org/2000/svg" width="54" height="54" viewBox="0 0 54 54"><g transform="translate(-840 -428)"><path d="M0,0H45.36V45.36H0ZM41.644,34.542c-.331-2.07-1.678-3.808-5.676-5.43-1.391-.652-2.937-1.106-3.4-2.155a2.232,2.232,0,0,1-.087-1.332c.283-1.221,1.729-1.588,2.863-1.247a3.075,3.075,0,0,1,1.845,1.7c1.954-1.278,1.954-1.278,3.317-2.126A7.8,7.8,0,0,0,39.4,22.478c-1.191-1.332-2.776-2.013-5.356-1.954l-1.332.168a6.092,6.092,0,0,0-3.232,1.9,5.93,5.93,0,0,0,1.075,8.45c2.58,1.928,6.352,2.351,6.834,4.167.454,2.211-1.644,2.92-3.716,2.665a4.976,4.976,0,0,1-3.317-2.525L26.9,37.335a7.643,7.643,0,0,0,1.531,2.1c3.289,3.319,11.51,3.149,12.986-1.9a6.4,6.4,0,0,0,.14-3.118l.087.127ZM24.666,20.849H20.418c0,3.663-.017,7.3-.017,10.971,0,2.328.119,4.466-.261,5.124-.624,1.3-2.23,1.136-2.96.907a3.647,3.647,0,0,1-1.569-1.616,1.621,1.621,0,0,0-.24-.37l-3.449,2.126a6.685,6.685,0,0,0,2.5,2.867,8.318,8.318,0,0,0,6.061.765,5.309,5.309,0,0,0,3.423-2.667c.964-1.758.76-3.912.75-6.324.023-3.882,0-7.766,0-11.678l.008-.106Z" transform="translate(840 436.64)" fill="#f7df1e"/><path d="M29.92,8.714,25.206,4,16.96,12.246,8.714,4,4,8.714l8.246,8.246L4,25.206,8.714,29.92l8.246-8.246,8.246,8.246,4.714-4.714L21.674,16.96Z" transform="translate(864.08 424)" fill="#e60000"/></g></svg>